<?xml version="1.0" encoding="UTF-8"?>
<svg width="80mm" height="80mm" version="1.1" viewBox="0 0 80 80" xmlns="http://www.w3.org/2000/svg" xmlns:cc="http://creativecommons.org/ns#" xmlns:dc="http://purl.org/dc/elements/1.1/" xmlns:rdf="http://www.w3.org/1999/02/22-rdf-syntax-ns#">
 <metadata>
  <rdf:RDF>
   <cc:Work rdf:about="">
    <dc:format>image/svg+xml</dc:format>
    <dc:type rdf:resource="http://purl.org/dc/dcmitype/StillImage"/>
    <dc:title/>
   </cc:Work>
  </rdf:RDF>
 </metadata>
 <g transform="translate(-98.168 -159.81)">
  <path transform="scale(.26458)" d="m411.34 604c-22.334 0-40.314 17.98-40.314 40.314v221.73c0 22.334 17.98 40.314 40.314 40.314h221.73c22.334 0 40.314-17.98 40.314-40.314v-221.73c0-22.334-17.98-40.314-40.314-40.314zm-20.357 65.738h35.543l41.08 120.14 39.752-120.14h38.666l32.553 52.152 31.891-52.152h37.98l-106.63 162.33h-15.811a30.236 30.236 0 0 0 2e-3 -0.23242 30.236 30.236 0 0 0-9.1543-21.674l41.129-62.801-28.107-43.402-34.973 97.654a30.236 30.236 0 0 0-29.367 30.223 30.236 30.236 0 0 0 2e-3 0.23242h-16.531zm211.37 85.484 0.0273 0.041 51.055 76.803h-39.531l-30.094-46.949-0.54297-0.8418zm-106.64 55.824a20.787 20.787 0 0 1 0.0645 0 20.787 20.787 0 0 1 20.787 20.787 20.787 20.787 0 0 1-20.787 20.787 20.787 20.787 0 0 1-20.787-20.787 20.787 20.787 0 0 1 20.723-20.787z" fill="#69297d" stroke-width=".71133"/>
 </g>
</svg>
