<?xml version="1.0" encoding="UTF-8"?>
<svg version="1.1" viewBox="0 0 460 460" xml:space="preserve" xmlns="http://www.w3.org/2000/svg" xmlns:xlink="http://www.w3.org/1999/xlink">
	<path fill="#782A91"      d="M0 57C0 25.5 28.65 0 64 0H396C431.5 0 460 25.5 460 57V94H393L340 170L287 94H204L131 254L61 94H0ZM460 119V340L399 253L358 312L385 362H460V403C460 434.5 431.5 460 396 460H64C28.65 460 0 434.5 0 403V115L110 364H136A62 62 0 01176 304L245 153L300 229L238 315A62 62 0 01260 362H287Z"/>
	<path fill="#FFFFFF" d="M236 362A38 38 0 11236 361zM0 94H61L131 254L204 94H287L340 170L393 94H460V119L287 362H260A62 62 0 00238 315L300 229L245 153L176 304A62 62 0 00136 364H110L0 115ZM358 312L399 253L460 340V362H385Z"/>
</svg>
